<?xml version="1.0" standalone="no"?>
<!DOCTYPE svg PUBLIC "-//W3C//DTD SVG 20010904//EN"
 "http://www.w3.org/TR/2001/REC-SVG-20010904/DTD/svg10.dtd">
<svg version="1.0" xmlns="http://www.w3.org/2000/svg"
 width="300.000000pt" height="300.000000pt" viewBox="0 0 300.000000 300.000000"
 preserveAspectRatio="xMidYMid meet">
<metadata>
Created by potrace 1.14, written by Peter Selinger 2001-2017
</metadata>
<g transform="translate(0.000000,300.000000) scale(0.100000,-0.100000)"
fill="#000000" stroke="none">
<path d="M1426 2709 c-44 -6 -67 -16 -89 -36 -45 -43 -163 -226 -218 -338 -64
-133 -97 -236 -179 -570 -110 -446 -204 -693 -323 -851 -86 -112 -164 -153
-232 -122 -36 16 -52 51 -75 165 -22 107 -31 123 -67 123 -32 0 -56 -13 -130
-73 -98 -79 -113 -106 -113 -209 l0 -85 40 -46 c23 -26 66 -58 98 -74 50 -25
68 -28 153 -28 90 0 99 2 172 38 88 44 226 167 287 257 115 170 192 379 319
868 34 127 79 286 101 352 41 124 100 264 107 256 2 -2 -5 -39 -16 -82 -50
-198 -65 -361 -81 -849 -11 -339 -27 -519 -61 -703 -28 -147 -29 -146 107
-140 124 6 172 26 245 106 140 152 239 343 449 867 92 229 217 504 271 598 37
65 148 227 155 227 1 0 -21 -51 -51 -112 -91 -193 -174 -470 -224 -758 -69
-388 -31 -689 105 -839 52 -59 105 -83 189 -89 165 -11 342 77 538 267 l97 94
0 89 c0 59 -4 88 -11 88 -7 0 -51 -40 -99 -89 -179 -180 -318 -200 -390 -56
-24 48 -25 58 -24 220 0 230 40 477 135 845 57 221 83 304 155 487 35 89 64
168 64 175 0 8 -5 19 -12 26 -28 28 -291 0 -351 -37 -19 -12 -80 -68 -135
-126 -208 -215 -362 -501 -606 -1123 -73 -186 -156 -375 -162 -369 -2 1 1 21
6 43 34 149 43 300 50 829 6 439 10 561 24 653 23 141 22 142 -83 141 -42 -1
-103 -5 -135 -10z"/>
</g>
</svg>
